<svg id="arrow" width="8" height="8" viewBox="0 0 8 8" fill="none" xmlns="http://www.w3.org/2000/svg">
<path d="M3.40141 0.535837L3.79779 0.12915C3.96563 -0.0430502 4.23703 -0.0430502 4.40308 0.12915L7.87412 3.68857C8.04196 3.86077 8.04196 4.13923 7.87412 4.3096L4.40308 7.87085C4.23524 8.04305 3.96384 8.04305 3.79779 7.87085L3.40141 7.46416C3.23178 7.29013 3.23535 7.00618 3.40855 6.83581L5.56009 4.73277H0.428524C0.19105 4.73277 0 4.53675 0 4.29311V3.70689C0 3.46325 0.19105 3.26723 0.428524 3.26723H5.56009L3.40855 1.16419C3.23357 0.993817 3.23 0.70987 3.40141 0.535837Z" fill="#222222"/>
</svg>
