<svg id="baguette" xmlns="http://www.w3.org/2000/svg" width="35" height="35" viewBox="0 0 35 35"><path d="M370.76,63.3c-6.49,6.26-13.26,7.53-15.7,7.24-3.11-.38,1.33-9.16,7.82-15.42s12.38-10.48,15.7-7.23S377.26,57.05,370.76,63.3Z" fill="none" stroke="#c5751c" stroke-miterlimit="10"/><path d="M369.73,52.62c1.23,1.34,2.18,2.35.82,3.72s-2.41.21-3.64-1.13-1.14-2.72-.36-3.43S368.5,51.28,369.73,52.62Z" fill="none" stroke="#c5751c" stroke-miterlimit="10"/><path d="M362.37,60.42c1.23,1.34,1.91,2.48.81,3.72s-2.41.21-3.64-1.12-1.47-2.93-.54-3.66S361.13,59.08,362.37,60.42Z" fill="none" stroke="#c5751c" stroke-miterlimit="10"/><path d="M382.63,70.55h2.92a.44.44,0,0,1,.38.66c-1.22,2-5.66,7.67-16.38,8-10.4.31-14.89-5.43-16.26-7.73a.61.61,0,0,1,.53-.92H368.3" fill="none" stroke="#c5751c" stroke-miterlimit="10"/><path d="M384.06,68.19a3,3,0,0,1-1.43,2.36H368.3a3,3,0,0,1-1.43-2.36c0-2.37,3.85-4.29,8.6-4.29S384.06,65.82,384.06,68.19Z" fill="none" stroke="#c5751c" stroke-miterlimit="10"/><rect width="35" height="35" fill="#fff"/><path d="M18.67,17.81C12.18,24.07,5.41,25.35,3,25.05c-3.11-.38,1.33-9.16,7.82-15.42S23.17-.85,26.49,2.4,25.17,11.56,18.67,17.81Z" fill="none" stroke="#c5751c" stroke-miterlimit="10" stroke-width="2"/><path d="M17.64,7.13c1.23,1.34,2.18,2.35.82,3.72s-2.41.21-3.64-1.12S13.68,7,14.46,6.29,16.41,5.79,17.64,7.13Z" fill="none" stroke="#c5751c" stroke-miterlimit="10" stroke-width="2"/><path d="M10.27,14.93c1.23,1.34,1.91,2.48.82,3.72s-2.41.22-3.64-1.12S6,14.6,6.91,13.87,9,13.59,10.27,14.93Z" fill="none" stroke="#c5751c" stroke-miterlimit="10" stroke-width="2"/><path d="M30.53,25.06h2.92a.44.44,0,0,1,.38.66c-1.22,2-5.66,7.67-16.38,8C7.05,34,2.56,28.28,1.19,26a.61.61,0,0,1,.53-.92H16.2" fill="none" stroke="#c5751c" stroke-miterlimit="10" stroke-width="2"/><path d="M32,22.7a3,3,0,0,1-1.43,2.36H16.2a3,3,0,0,1-1.43-2.36c0-2.37,3.85-4.29,8.6-4.29S32,20.33,32,22.7Z" fill="none" stroke="#c5751c" stroke-miterlimit="10" stroke-width="2"/></svg>
