<svg id="calendar" width="10" height="11" viewBox="0 0 10 11" fill="none" xmlns="http://www.w3.org/2000/svg">
<path d="M0.267857 4.125H9.73214C9.87946 4.125 10 4.24102 10 4.38281V9.96875C10 10.5381 9.52009 11 8.92857 11H1.07143C0.479911 11 0 10.5381 0 9.96875V4.38281C0 4.24102 0.120536 4.125 0.267857 4.125ZM10 3.17969V2.40625C10 1.83691 9.52009 1.375 8.92857 1.375H7.85714V0.257812C7.85714 0.116016 7.73661 0 7.58929 0H6.69643C6.54911 0 6.42857 0.116016 6.42857 0.257812V1.375H3.57143V0.257812C3.57143 0.116016 3.45089 0 3.30357 0H2.41071C2.26339 0 2.14286 0.116016 2.14286 0.257812V1.375H1.07143C0.479911 1.375 0 1.83691 0 2.40625V3.17969C0 3.32148 0.120536 3.4375 0.267857 3.4375H9.73214C9.87946 3.4375 10 3.32148 10 3.17969Z" fill="#9D9D9D"/>
</svg>
