<svg id="cart" width="11" height="12" viewBox="0 0 14 12" fill="none" xmlns="http://www.w3.org/2000/svg"><path d="M12.8363 7.06216l1.149-4.875c.0829-.35198-.1945-.68716-.5689-.68716H3.86964L3.64686.449766C3.59134.187992 3.35247 0 3.07536 0H.583333C.261163 0 0 .251836 0 .5625v.375C0 1.24816.261163 1.5.583333 1.5H2.28188L3.9893 9.54926c-.40848.22652-.68374.65124-.68374 1.13824 0 .7249.60939 1.3125 1.36111 1.3125s1.36111-.5876 1.36111-1.3125c0-.3674-.1567-.69926-.40892-.9375h5.09564c-.2522.23824-.4089.5701-.4089.9375 0 .7249.6093 1.3125 1.3611 1.3125.7517 0 1.3611-.5876 1.3611-1.3125 0-.5197-.3133-.96872-.7676-1.18137l.1341-.56897c.083-.35198-.1945-.68716-.5688-.68716H5.30146l-.15908-.75h7.12502c.2724 0 .5085-.18173.5689-.43784z" fill="#222"/></svg>
