<svg id="gift" width="26" height="24" viewBox="0 0 26 24" fill="none" xmlns="http://www.w3.org/2000/svg"><path d="M1.625 22.2857C1.625 23.2339 2.35117 24 3.25 24h8.125v-8.5714h-9.75v6.8571zm13 1.7143h8.125c.8988 0 1.625-.7661 1.625-1.7143v-6.8571h-9.75V24zm9.75-17.14286h-2.1379c.3149-.64821.5129-1.36607.5129-2.14285C22.75 2.11607 20.7441 0 18.2812 0c-2.1124 0-3.4785 1.14107-5.2304 3.65893C11.2988 1.14107 9.93281 0 7.82031 0 5.35742 0 3.35156 2.11607 3.35156 4.71429c0 .77678.19297 1.49464.51289 2.14285H1.625C.726172 6.85714 0 7.62321 0 8.57143v4.28567c0 .4715.365625.8572.8125.8572h24.375c.4469 0 .8125-.3857.8125-.8572V8.57143c0-.94822-.7262-1.71429-1.625-1.71429zm-16.55977 0c-1.12226 0-2.03125-.95893-2.03125-2.14285 0-1.18393.90899-2.14286 2.03125-2.14286 1.01055 0 1.75704.17678 4.37227 4.28571H7.81523zm10.46597 0H13.909c2.6101-4.09821 3.3363-4.28571 4.3722-4.28571 1.1223 0 2.0313.95893 2.0313 2.14286 0 1.18392-.909 2.14285-2.0313 2.14285z" fill="#FFA801"/></svg>
