<svg id="magnifying-glass" width="16" height="16" viewBox="0 0 16 16" fill="none" xmlns="http://www.w3.org/2000/svg"><path d="M15.7824 13.833l-3.1158-3.1153c-.1407-.1406-.3313-.2187-.5313-.2187h-.5094c.8625-1.10304 1.3751-2.49041 1.3751-3.99963C13.001 2.90909 10.0914 0 6.50048 0 2.90959 0 0 2.90909 0 6.49937c0 3.59023 2.90959 6.49933 6.50048 6.49933 1.50948 0 2.89708-.5124 4.00032-1.3748v.5093c0 .2.0781.3906.2187.5312l3.1159 3.1153c.2938.2937.7688.2937 1.0594 0l.8845-.8843c.2938-.2937.2938-.7687.0031-1.0624zm-9.28192-3.334c-2.20954 0-4.0003-1.78735-4.0003-3.99963 0-2.20916 1.78763-3.99961 4.0003-3.99961 2.20953 0 4.00032 1.78732 4.00032 3.99961 0 2.20915-1.78766 3.99963-4.00032 3.99963z" fill="#222"/></svg>
