<svg id="pinterest" width="16" height="20" viewBox="0 0 16 17" fill="none" xmlns="http://www.w3.org/2000/svg"><path d="M2.28516 2.69531C3.83203 1.14844 5.69531.375 7.875.375c2.1797 0 4.0312.77344 5.5547 2.32031C14.9766 4.21875 15.75 6.07031 15.75 8.25c0 2.1797-.7734 4.043-2.3203 5.5898-1.5235 1.5235-3.375 2.2852-5.5547 2.2852-.79688 0-1.54688-.1055-2.25-.3164.42188-.75.69141-1.3125.80859-1.6875l.5625-2.1797c.35157.6563.98438.9844 1.89844.9844 1.26567 0 2.28517-.5039 3.05857-1.5117.7969-1.0079 1.1953-2.29691 1.1953-3.86722 0-1.21876-.4687-2.27344-1.4062-3.16407-.9375-.91406-2.13282-1.37109-3.58595-1.37109-1.73437 0-3.10547.51562-4.11328 1.54687-1.00781 1.00782-1.51172 2.13282-1.51172 3.375 0 1.57032.53906 2.57811 1.61719 3.02341.21094.0938.35156.0235.42187-.2109 0-.0469.01172-.1523.03516-.3164.04687-.1641.08203-.2695.10547-.3164.04687-.14064.01172-.28127-.10547-.42189-.35156-.42188-.52735-.9375-.52735-1.54688 0-1.03125.35157-1.91015 1.05469-2.63672.72657-.75 1.66407-1.125 2.8125-1.125 1.03125 0 1.83985.28125 2.42579.84375.5859.53906.8789 1.25391.8789 2.14453 0 1.17188-.2344 2.16797-.7031 2.98831-.4688.7968-1.06643 1.1953-1.79299 1.1953-.42188 0-.76172-.1406-1.01953-.4219-.25782-.3047-.33985-.668-.2461-1.0898.04688-.23441.12891-.55081.2461-.94925.14062-.39844.24609-.75.3164-1.05469.09375-.30468.14063-.5625.14063-.77344 0-.32812-.09375-.60937-.28125-.84374-.1875-.23438-.44532-.35157-.77344-.35157-.42188 0-.78516.19922-1.08984.59766-.28126.375-.42188.85547-.42188 1.44141 0 .21093.02344.42187.07031.63281.04688.21093.09375.375.14063.49219l.03515.14062c-.58593 2.4375-.92578 3.8672-1.01953 4.2891-.14062.5625-.1875 1.1601-.14062 1.7929-1.40625-.6328-2.54297-1.5937-3.41016-2.8828C.433594 11.2852 0 9.84375 0 8.25c0-2.17969.761719-4.03125 2.28516-5.55469z" fill="#A5A5A5"/></svg>
