<svg id="tweeter" width="17" height="20" viewBox="0 0 17 14" fill="none" xmlns="http://www.w3.org/2000/svg"><path d="M16.5938 2.11719c-.4219.65625-.9844 1.24218-1.6876 1.75781v.42188c0 2.46093-.8906 4.69921-2.6718 6.71482C10.4766 13.0039 8.13281 14 5.20312 14 3.32812 14 1.59375 13.4844 0 12.4531c.375.0469.644531.0703.808594.0703 1.570316 0 2.976566-.4922 4.218746-1.4765-.72656-.0235-1.38281-.2461-1.96875-.668-.58593-.44531-.98437-1.00781-1.19531-1.68749.28125.04687.49219.07031.63281.07031.23438 0 .53907-.04688.91407-.14063-.77344-.16406-1.42969-.55078-1.96875-1.16015C.925781 6.82812.667969 6.10156.667969 5.28125v-.03516c.515621.28125 1.031251.42188 1.546871.42188C1.20703 5.01172.703125 4.0625.703125 2.82031c0-.58594.152344-1.14844.457035-1.6875 1.80468 2.22656 4.13672 3.41016 6.99609 3.55078-.04687-.16406-.07031-.42187-.07031-.77343 0-.96094.32812-1.76953.98437-2.42578C9.72656.828125 10.5352.5 11.4961.5c.9609 0 1.7812.363281 2.4609 1.08984.7032-.11718 1.4297-.39843 2.1797-.843746-.2344.820316-.7383 1.453126-1.5117 1.898436.7266-.07031 1.3828-.24609 1.9688-.52734z" fill="#A5A5A5"/></svg>
