<svg id="youtube" width="18" height="20" viewBox="0 0 18 14" fill="none" xmlns="http://www.w3.org/2000/svg"><path d="M17.8945 3.48828C17.9648 4.75391 18 6.00781 18 7.25s-.0352 2.49609-.1055 3.7617c0 .7969-.2578 1.4766-.7734 2.0391-.4922.539-1.1016.8086-1.8281.8086C13.4883 13.9531 11.3906 14 9 14c-2.39062 0-4.48828-.0469-6.29297-.1406-.72656 0-1.34765-.2696-1.86328-.8086-.492188-.5625-.738281-1.2422-.738281-2.0391C.035156 9.74609 0 8.49219 0 7.25c0-.82031.046875-2.07422.140625-3.76172 0-.79687.246094-1.46484.738281-2.0039C1.37109.921875 1.98047.640625 2.70703.640625 4.41797.546875 6.41016.5 8.68359.5h.63282C11.5898.5 13.582.546875 15.293.640625c.7265 0 1.3359.28125 1.8281.843755.5156.53906.7734 1.20703.7734 2.0039zM7.27734 10.6953L12.375 7.25 7.27734 3.76953v6.92577z" fill="#A5A5A5"/></svg>
